<svg role="img" viewBox="0 0 24 24" xmlns="http://www.w3.org/2000/svg" id="Penpot--Streamline-Simple-Icons"><desc>Penpot Streamline Icon: https://streamlinehq.com</desc><title>Penpot</title><path d="M7.654 0 5.13 3.554v2.01L2.934 6.608l-0.02 -0.009v13.109l8.563 4.045L12 24l0.523 -0.247 8.563 -4.045V6.6l-0.017 0.008 -2.196 -1.045V3.555l-0.077 -0.108L16.349 0.001l-2.524 3.554v0.004L11.989 0.973l-1.823 2.566 -0.065 -0.091zm0.447 2.065 0.976 1.374H6.232l0.964 -1.358zm8.694 0 0.976 1.374h-2.845l0.965 -1.358zm-4.36 0.971 0.976 1.375h-2.845l0.965 -1.359zM5.962 4.132h1.35v4.544l-1.35 -0.638Zm2.042 0h1.343v5.506l-1.343 -0.635zm6.652 0h1.35V9l-1.35 0.637V4.132zm2.042 0h1.343v3.905l-1.343 0.634zm-6.402 0.972h1.35v5.62l-1.35 -0.638zm2.042 0h1.343v4.993l-1.343 0.634zm6.534 1.493 1.188 0.486 -1.188 0.561zM5.13 6.6v1.047l-1.187 -0.561ZM3.96 8.251l7.517 3.55v10.795l-7.516 -3.55zm16.08 0v10.794l-7.517 3.55V11.802z" fill="currentColor" stroke-width="1"></path></svg>