<svg xmlns="http://www.w3.org/2000/svg" fill="none" viewBox="0 0 48 48" id="Book--Streamline-Outlined-Material"><desc>Book Streamline Icon: https://streamlinehq.com</desc><path fill="currentColor" d="M11 44c-0.8 0 -1.5 -0.3 -2.1 -0.9 -0.6 -0.6 -0.9 -1.3 -0.9 -2.1V7c0 -0.8 0.3 -1.5 0.9 -2.1 0.6 -0.6 1.3 -0.9 2.1 -0.9h26c0.8 0 1.5 0.3 2.1 0.9 0.6 0.6 0.9 1.3 0.9 2.1v34c0 0.8 -0.3 1.5 -0.9 2.1 -0.6 0.6 -1.3 0.9 -2.1 0.9H11Zm0 -3h26V7h-3v13.3l-4.85 -2.8 -4.85 2.8V7H11v34Z" stroke-width="1"></path></svg>