<svg xmlns="http://www.w3.org/2000/svg" fill="none" viewBox="0 0 48 48" id="Folder-Managed--Streamline-Outlined-Material"><desc>Folder Managed Streamline Icon: https://streamlinehq.com</desc><path fill="currentColor" d="m34.55 43.9 -0.25 -2.4c-0.7667 -0.2333 -1.4667 -0.5417 -2.1 -0.925 -0.6333 -0.3833 -1.1833 -0.7917 -1.65 -1.225l-2.1 1 -1.75 -2.7 1.9 -1.5c-0.1667 -0.6333 -0.25 -1.325 -0.25 -2.075 0 -0.75 0.0833 -1.4417 0.25 -2.075l-1.9 -1.5 1.75 -2.75 2.1 1c0.4667 -0.4 1.0167 -0.7917 1.65 -1.175 0.6333 -0.3833 1.3333 -0.6917 2.1 -0.925l0.25 -2.45h3l0.3 2.45c0.7667 0.2333 1.4667 0.5417 2.1 0.925 0.6333 0.3833 1.1833 0.775 1.65 1.175l2.1 -1 1.75 2.75 -1.9 1.5c0.1667 0.6333 0.25 1.325 0.25 2.075 0 0.75 -0.0833 1.4417 -0.25 2.075l1.9 1.5 -1.75 2.7 -2.1 -1c-0.4667 0.4333 -1.0167 0.8417 -1.65 1.225 -0.6333 0.3833 -1.3333 0.6917 -2.1 0.925l-0.3 2.4h-3Zm1.5 -4.75c1.4667 0 2.6833 -0.4833 3.65 -1.45 0.9667 -0.9667 1.45 -2.1833 1.45 -3.65s-0.4833 -2.6833 -1.45 -3.65c-0.9667 -0.9667 -2.1833 -1.45 -3.65 -1.45s-2.6833 0.4833 -3.65 1.45c-0.9667 0.9667 -1.45 2.1833 -1.45 3.65s0.4833 2.6833 1.45 3.65c0.9667 0.9667 2.1833 1.45 3.65 1.45ZM7 37V11v11Zm0 3c-0.8 0 -1.5 -0.3083 -2.1 -0.925C4.3 38.4583 4 37.7667 4 37V11c0 -0.7667 0.3 -1.45833 0.9 -2.075C5.5 8.30833 6.2 8 7 8h14.05l3 3H41c0.7667 0 1.4583 0.3083 2.075 0.925 0.6167 0.6167 0.925 1.3083 0.925 2.075v9.7c-0.4667 -0.3667 -0.9417 -0.6833 -1.425 -0.95 -0.4833 -0.2667 -1.0083 -0.5167 -1.575 -0.75v-8H22.8l-3 -3H7v26h16.4c0.1333 0.5333 0.2833 1.05 0.45 1.55 0.1667 0.5 0.3833 0.9833 0.65 1.45H7Z" stroke-width="1"></path></svg>