<svg xmlns="http://www.w3.org/2000/svg" fill="none" viewBox="0 0 48 48" id="News--Streamline-Outlined-Material"><desc>News Streamline Icon: https://streamlinehq.com</desc><path fill="currentColor" d="M9 42c-0.8 0 -1.5 -0.3 -2.1 -0.9 -0.6 -0.6 -0.9 -1.3 -0.9 -2.1V9c0 -0.8 0.3 -1.5 0.9 -2.1C7.5 6.3 8.2 6 9 6h23.1l9.9 9.9V39c0 0.8 -0.3 1.5 -0.9 2.1 -0.6 0.6 -1.3 0.9 -2.1 0.9H9Zm0 -3h30V17.5715h-8.55V9H9v30Zm4.95 -5.55h20.1v-3h-20.1v3Zm0 -15.9H24v-3H13.95v3Zm0 7.95h20.1v-3h-20.1v3Z" stroke-width="1"></path></svg>