<svg xmlns="http://www.w3.org/2000/svg" viewBox="0 0 24 24" id="Notification-Line--Streamline-Mingcute"><desc>Notification Line Streamline Icon: https://streamlinehq.com</desc><g fill="none" fill-rule="evenodd"><path d="m24 0 0 24 -24 0L0 0l24 0ZM12.5935 23.2578l-0.0116 0.0017 -0.071 0.0355 -0.019 0.0037 -0.0152 -0.0037 -0.071 -0.0355c-0.0099 -0.0031 -0.0187 -0.0005 -0.0236 0.0054l-0.0041 0.0109 -0.0171 0.4273 0.005 0.0204 0.011 0.0122 0.1036 0.074 0.0148 0.0039 0.0118 -0.0039 0.1036 -0.074 0.0126 -0.016 0.0034 -0.0166 -0.0171 -0.4273c-0.002 -0.0101 -0.0086 -0.0165 -0.0161 -0.018Zm0.2649 -0.1125 -0.0139 0.002 -0.1847 0.0924 -0.0099 0.0102 -0.0027 0.0112 0.0179 0.4295 0.0048 0.0128 0.0085 0.0071 0.2009 0.0927c0.0121 0.0037 0.0229 -0.0002 0.0285 -0.008l0.004 -0.014 -0.0341 -0.6147c-0.0024 -0.0119 -0.0103 -0.0195 -0.0193 -0.0212Zm-0.7154 0.002c-0.0098 -0.0049 -0.0208 -0.002 -0.0274 0.0053l-0.0057 0.0139 -0.0341 0.6147c-0.0007 0.0115 0.007 0.0207 0.0168 0.0234l0.0157 -0.0014 0.2009 -0.0927 0.0094 -0.0081 0.0039 -0.0118 0.0179 -0.4295 -0.0032 -0.0126 -0.0094 -0.0088 -0.1848 -0.0924Z" stroke-width="1"></path><path fill="currentColor" d="M5.00016 9c0 -3.86599 3.13401 -7 7.00004 -7 3.866 0 7 3.13401 7 7l0 3.7639 1.822 3.6442c0.3657 0.7314 -0.1661 1.5919 -0.9838 1.5919l-3.9644 0c-0.4441 1.7252 -2.0102 3 -3.874 3s-3.42994 -1.2748 -3.87398 -3l-3.96405 0c-0.81772 0 -1.34957 -0.8605 -0.98387 -1.5919l1.82206 -3.6442 0 -3.7639Zm5.26744 9c0.3458 0.5978 0.9921 1 1.7324 1s1.3866 -0.4022 1.7324 -1l-3.4648 0Zm1.7326 -14C9.23874 4 7.00016 6.23858 7.00016 9l0 3.7639c0 0.3105 -0.07229 0.6167 -0.21114 0.8945L5.6182 16l12.7639 0 -1.1708 -2.3416c-0.1388 -0.2778 -0.2111 -0.584 -0.2111 -0.8945l0 -3.7639c0 -2.76142 -2.2386 -5 -5 -5Z" stroke-width="1"></path></g></svg>