<svg xmlns="http://www.w3.org/2000/svg" fill="none" viewBox="0 0 48 48" id="Tab-Move--Streamline-Outlined-Material"><desc>Tab Move Streamline Icon: https://streamlinehq.com</desc><path fill="currentColor" d="M9 42c-0.8 0 -1.5 -0.3 -2.1 -0.9 -0.6 -0.6 -0.9 -1.3 -0.9 -2.1v-9.1h3V39h30V11.85H9v9.05H6V9c0 -0.8 0.3 -1.5 0.9 -2.1C7.5 6.3 8.2 6 9 6h30c0.8 0 1.5 0.3 2.1 0.9 0.6 0.6 0.9 1.3 0.9 2.1v30c0 0.8 -0.3 1.5 -0.9 2.1 -0.6 0.6 -1.3 0.9 -2.1 0.9H9Zm14 -8.3 -2.1 -2.1 4.65 -4.7H6v-3h19.55l-4.65 -4.7 2.1 -2.1 8.3 8.3 -8.3 8.3Z" stroke-width="1"></path></svg>