<svg xmlns="http://www.w3.org/2000/svg" fill="currentColor" class="bi bi-pencil-square" viewBox="0 0 16 16" id="Pencil-Square--Streamline-Bootstrap"><desc>Pencil Square Streamline Icon: https://streamlinehq.com</desc><path d="M15.502 1.94a0.5 0.5 0 0 1 0 0.706L14.459 3.69l-2 -2L13.502 0.646a0.5 0.5 0 0 1 0.707 0l1.293 1.293zm-1.75 2.456 -2 -2L4.939 9.21a0.5 0.5 0 0 0 -0.121 0.196l-0.805 2.414a0.25 0.25 0 0 0 0.316 0.316l2.414 -0.805a0.5 0.5 0 0 0 0.196 -0.12l6.813 -6.814z" stroke-width="1"></path><path fill-rule="evenodd" d="M1 13.5A1.5 1.5 0 0 0 2.5 15h11a1.5 1.5 0 0 0 1.5 -1.5v-6a0.5 0.5 0 0 0 -1 0v6a0.5 0.5 0 0 1 -0.5 0.5h-11a0.5 0.5 0 0 1 -0.5 -0.5v-11a0.5 0.5 0 0 1 0.5 -0.5H9a0.5 0.5 0 0 0 0 -1H2.5A1.5 1.5 0 0 0 1 2.5z" stroke-width="1"></path></svg>